<svg viewBox="128.98404255319156 488.1500000000001 367.1808510638297 272.23749999999984" xmlns="http://www.w3.org/2000/svg" overflow="visible" xmlns:xlink="http://www.w3.org/1999/xlink" width="367.1808510638297px" height="272.23749999999984px"><g id="Master/Character/Sitting on Floor" stroke="none" stroke-width="1" fill="none" fill-rule="evenodd"><g id="Lower Body/Sitting on Floor" transform="translate(71.000000, 391.000000) scale(1 1)"><g id="Lower Body/Sitting on Floor/Legs Extended Green Long Pants" stroke="none" stroke-width="1" fill="none" fill-rule="evenodd"><g id="Group" transform="translate(139.000108, 278.000429)"><path d="M273.849892,45.6050707 C271.391892,45.6060707 272.793892,45.6770707 260.311892,51.2970707 C248.290892,56.7090707 230.796892,56.8400707 230.796892,56.8400707 L230.783892,65.1020707 C223.469892,61.4650707 217.917892,57.4940707 217.917892,57.4940707 L217.435892,57.0540707 L206.891892,65.6040707 L210.530892,67.6230707 C210.530892,67.6230707 210.178892,69.0890707 210.131892,71.0540707 L181.070892,73.4160707 L181.039892,73.5880707 L210.130892,71.1260707 C210.045892,75.3560707 211.392892,81.8190707 220.619892,81.0480707 C226.989892,80.5160707 235.625892,79.9850707 243.293892,79.5420707 C243.293892,79.5420707 255.321892,78.9690707 259.261892,78.2380707 C260.730892,77.2440707 261.008892,74.9200707 259.349892,73.7150707 C257.664892,72.4920707 258.187892,72.9370707 250.235892,71.4030707 C254.551892,67.7560707 259.637892,63.5650707 264.286892,59.7570707 C264.286892,59.7570707 273.679892,52.2240707 276.436892,49.3150707 C277.040892,47.6480707 275.899892,45.6050707 273.849892,45.6050707" id="Socks" fill="#94B1EB"/><path d="M172.696592,50.3814707 L143.952592,45.3794707 C141.687592,45.2504707 139.417592,45.2644707 137.155592,45.4214707 L118.309592,47.7344707 L151.195592,33.7644707 C151.195592,33.7644707 154.533592,37.1244707 165.993592,42.9134707 L179.951592,51.1884707 L172.696592,50.3814707 Z M215.458592,55.1344707 L183.510592,26.2344707 L183.531592,26.2134707 L160.351592,5.1544707 C160.351592,5.1544707 149.805592,-4.2805293 135.928592,2.3794707 C122.052592,9.0404707 92.0165919,19.7864707 92.0165919,19.7864707 L90.6985919,13.8164707 L3.88859188,13.1514707 C3.88859188,13.1514707 -17.2034081,75.7484707 38.8575919,76.3044707 C94.9185919,76.8594707 149.525592,73.1484707 149.525592,73.1484707 L177.418592,73.5374707 L177.453592,73.7094707 L179.254592,73.5634707 L181.040592,73.5884707 L181.070592,73.4154707 L210.132592,71.0544707 C210.178592,69.0894707 210.530592,67.6224707 210.530592,67.6224707 L206.891592,65.6044707 L184.545592,53.2064707 L184.634592,52.6904707 L206.891592,65.6044707 L217.435592,57.0544707 L217.918592,57.4934707 C217.918592,57.4934707 223.469592,61.4654707 230.783592,65.1024707 L230.797592,56.8404707 L215.458592,55.1344707 Z" id="Pants" fill="#83BB9E"/><path d="M272.757092,50.7622707 C270.437092,50.7622707 268.419092,49.6452707 267.402092,48.0102707 C267.120092,48.1462707 266.817092,48.2902707 266.498092,48.4422707 C267.677092,50.4112707 270.037092,51.7622707 272.757092,51.7622707 C273.162092,51.7622707 273.558092,51.7262707 273.944092,51.6682707 C274.554092,51.1242707 275.107092,50.6172707 275.581092,50.1642707 C274.737092,50.5442707 273.777092,50.7622707 272.757092,50.7622707 L272.757092,50.7622707 Z M149.502092,72.6482707 C148.989092,72.6722707 99.6880919,74.9362707 46.6060919,75.7212707 C56.2820919,73.7662707 66.5070919,70.1042707 76.0130919,65.1432707 L151.410092,34.2152707 C151.659092,34.0962707 151.766092,33.7982707 151.647092,33.5492707 C151.527092,33.2982707 151.228092,33.1932707 150.981092,33.3132707 L75.5670919,64.2482707 C63.9210919,70.3252707 51.2150919,74.4342707 39.7890919,75.8162707 C39.7640919,75.8202707 39.7420919,75.8332707 39.7180919,75.8402707 C39.6870919,75.8492707 39.6550919,75.8562707 39.6270919,75.8702707 C39.5980919,75.8852707 39.5730919,75.9052707 39.5480919,75.9252707 C39.5230919,75.9452707 39.4980919,75.9622707 39.4780919,75.9862707 C39.4560919,76.0102707 39.4420919,76.0372707 39.4250919,76.0662707 C39.4090919,76.0932707 39.3930919,76.1192707 39.3820919,76.1512707 C39.3710919,76.1812707 39.3680919,76.2132707 39.3630919,76.2452707 C39.3610919,76.2712707 39.3500919,76.2932707 39.3500919,76.3192707 C39.3500919,76.3292707 39.3550919,76.3372707 39.3560919,76.3472707 C39.3570919,76.3562707 39.3530919,76.3642707 39.3540919,76.3722707 C39.3570919,76.4002707 39.3700919,76.4222707 39.3770919,76.4472707 C39.3850919,76.4752707 39.3900919,76.5032707 39.4020919,76.5302707 C39.4180919,76.5622707 39.4410919,76.5882707 39.4620919,76.6162707 C39.4790919,76.6372707 39.4910919,76.6582707 39.5100919,76.6762707 C39.5390919,76.7042707 39.5740919,76.7232707 39.6100919,76.7422707 C39.6280919,76.7532707 39.6440919,76.7682707 39.6630919,76.7762707 C39.7220919,76.7992707 39.7830919,76.8132707 39.8490919,76.8132707 L39.8500919,76.8132707 L39.8560919,76.8132707 C95.4530919,76.1322707 149.014092,73.6722707 149.519092,73.6482707 L181.033092,74.0882707 C182.026092,73.9082707 181.147092,73.0822707 181.147092,73.0822707 L149.502092,72.6482707 Z M259.815092,76.5002707 C259.540092,77.4802707 258.714092,78.1532707 257.711092,78.2142707 C256.744092,78.2732707 255.608092,78.3402707 254.335092,78.4122707 C253.864092,77.6802707 253.582092,76.8472707 253.582092,75.9542707 C253.582092,74.7502707 254.073092,73.6452707 254.889092,72.7672707 C254.931092,72.7742707 254.981092,72.7832707 255.021092,72.7892707 C257.825092,73.2832707 257.928092,73.3032707 258.943092,74.0382707 C258.944092,74.0402707 258.945092,74.0422707 258.947092,74.0432707 C259.907092,74.7102707 260.025092,75.7502707 259.815092,76.5002707 L259.815092,76.5002707 Z M220.194092,80.5682707 C216.777092,80.7792707 214.226092,79.9602707 212.635092,78.1082707 C211.253092,76.4992707 210.767092,74.3372707 210.657092,72.4032707 C211.442092,72.1062707 212.286092,71.9322707 213.173092,71.9322707 C217.137092,71.9322707 220.362092,75.1582707 220.362092,79.1212707 C220.362092,79.6192707 220.293092,80.0992707 220.194092,80.5682707 L220.194092,80.5682707 Z M259.694092,73.3662707 C259.677092,73.3492707 259.665092,73.3262707 259.644092,73.3112707 C258.329092,72.3562707 258.153092,72.3252707 255.194092,71.8052707 C253.372092,71.4842707 250.322092,70.9482707 245.153092,69.8712707 C232.502092,67.2362707 218.351092,57.1872707 218.209092,57.0862707 C217.986092,56.9262707 217.673092,56.9762707 217.512092,57.2012707 C217.351092,57.4262707 217.402092,57.7392707 217.627092,57.9002707 C217.771092,58.0022707 232.089092,68.1712707 244.950092,70.8502707 C249.117092,71.7182707 251.896092,72.2332707 253.780092,72.5702707 C253.037092,73.5442707 252.582092,74.6992707 252.582092,75.9542707 C252.582092,76.8552707 252.817092,77.7052707 253.216092,78.4772707 C252.250092,78.5322707 251.222092,78.5902707 250.141092,78.6512707 C241.432092,79.1442707 229.596092,79.8142707 221.227092,80.4972707 C221.306092,80.0482707 221.362092,79.5922707 221.362092,79.1212707 C221.362092,74.6062707 217.689092,70.9322707 213.173092,70.9322707 C212.285092,70.9322707 211.436092,71.0842707 210.635092,71.3482707 C210.652092,69.3312707 211.009092,67.7712707 211.017092,67.7392707 C211.069092,67.5212707 210.969092,67.2942707 210.773092,67.1852707 L166.236092,42.4772707 C165.995092,42.3422707 165.691092,42.4302707 165.556092,42.6712707 C165.422092,42.9122707 165.509092,43.2172707 165.751092,43.3512707 L209.964092,67.8802707 C209.663092,69.4102707 208.793092,75.1662707 211.873092,78.7562707 C213.501092,80.6542707 215.949092,81.6112707 219.163092,81.6112707 C219.646092,81.6112707 220.146092,81.5892707 220.662092,81.5452707 C229.044092,80.8462707 241.271092,80.1552707 250.197092,79.6502707 C253.215092,79.4792707 255.836092,79.3302707 257.772092,79.2122707 C259.206092,79.1242707 260.387092,78.1652707 260.778092,76.7702707 C261.137092,75.4872707 260.708092,74.1802707 259.694092,73.3662707 L259.694092,73.3662707 Z" id="Fill-7" fill="#000"/></g><path d="M199.2532,310.1287 C213.247539,304.942122 223.743294,301.052189 230.740464,298.4589 C233.547294,297.418633 233.447873,297.0999 230.4422,297.5027 L198.9052,309.1917 C198.6472,309.2867 198.5152,309.5757 198.6112,309.8337 C198.6852,310.0357 198.8762,310.1597 199.0792,310.1597 C199.1372,310.1597 199.1952,310.1507 199.2532,310.1287 Z" id="Path" fill="#000"/><path d="M199.2532,310.1287 C213.247539,304.942122 223.743294,301.052189 230.740464,298.4589 C233.547294,297.418633 233.447873,297.0999 230.4422,297.5027 L198.9052,309.1917 C198.6472,309.2867 198.5152,309.5757 198.6112,309.8337 C198.6852,310.0357 198.8762,310.1597 199.0792,310.1597 C199.1372,310.1597 199.1952,310.1507 199.2532,310.1287 Z" id="Path" fill="#000"/></g></g><g id="Upper Body" transform="translate(8.000000, 378.000000) scale(1 1)"><g id="Upper Body/Listen Music" stroke="none" stroke-width="1" fill="none" fill-rule="evenodd"><path d="M177.993,193.8302 C177.993,193.8302 184.794,203.4312 183.993,215.0332 C183.993,215.0332 204.796,181.8292 240.401,180.2282 C240.401,180.2282 246.401,185.8292 262.003,180.2282 C262.003,180.2282 297.207,176.2282 314.01,215.0332 C314.01,215.0332 318.01,197.8302 323.611,193.4302 C329.211,189.0292 349.694,196.2492 349.694,196.2492 C349.694,196.2492 342.786,252.3072 319.72,263.4972 C317.803,264.4272 315.558,264.4432 313.605,263.5892 C307.55,260.9392 294.556,251.9152 289.206,222.3752 C289.206,222.3752 299.958515,287.700593 299.958515,308.059877 C299.958515,311 295.116006,311 293.065119,311 C293.065119,311 217.493333,314.110366 204.81183,311 C204.81183,311 200.550181,311.89819 201.649318,305.115664 C203.64057,292.828094 210.176492,259.844202 211.471,241.9932 C211.471,241.9932 196.795,268.2392 177.993,268.2392 C159.191,268.2392 153.39,223.4342 155.39,202.6312 L177.993,193.8302 Z" id="Sweater" fill="#F0BE91"/><path d="M306.3465,258.8107 C309.1465,261.3117 311.7145,262.7617 313.6055,263.5887 C315.5575,264.4437 317.8025,264.4267 319.7195,263.4967 C323.3905,261.7157 326.7095,258.7847 329.6985,255.1197 C316.5295,248.1027 309.2785,254.7597 306.3465,258.8107 M164.5495,258.1947 C167.9755,264.2907 172.4115,268.2387 177.9925,268.2387 C182.4205,268.2387 186.5545,266.7867 190.2965,264.5817 C181.5925,250.7677 164.5535,258.1937 164.5495,258.1947 M212.3955,236.5597 L211.2445,244.5167 C248.4265,256.7887 291.7785,242.0857 291.7785,242.0857 L290.8345,233.9117 C254.5395,247.5307 212.3955,236.5597 212.3955,236.5597" id="Sweater-details" fill="#F1EFEF"/><path d="M163.8518,168.0579 C162.5088,160.2969 164.0008,156.4169 166.6878,158.2079 C169.3738,159.9979 173.5828,184.0469 179.1048,180.6139 C184.6268,177.1809 199.7658,175.8309 187.0798,182.6959 C174.3938,189.5619 176.9288,194.2449 176.9288,194.2449 L176.9288,194.2449 L159.6178,200.9849 C153.2948,187.7959 154.4428,186.1789 154.3638,178.7339 C152.5218,176.4969 150.9608,173.0259 151.9868,172.7339 C153.0278,172.4379 154.8878,174.3739 156.0858,175.7969 C155.9888,173.9479 156.0838,172.2749 156.0838,172.2749 C156.0838,172.2749 156.5618,168.5539 158.4728,169.0159 C158.9898,169.1409 159.3518,169.6159 159.5888,170.2999 C159.5978,169.8419 159.6088,169.5519 159.6088,169.5519 C159.6088,169.5519 159.5948,165.9749 162.0388,166.5669 C162.6568,166.7159 163.1208,167.2249 163.4598,167.9579 C163.7008,168.0079 163.8518,168.0579 163.8518,168.0579 Z M344.8763,172.2244 C349.5693,168.3244 356.2673,163.4634 358.5943,165.2944 C360.2573,166.6034 354.1973,170.4184 348.1823,176.3514 C348.1783,176.3654 348.1763,176.3814 348.1733,176.3944 C349.1723,175.6204 349.8953,175.1024 349.9383,175.0724 C351.5943,173.8984 354.4273,172.2544 356.1203,175.0724 C356.3943,175.5284 356.1583,176.2594 355.5703,177.1164 C356.7193,176.8214 357.9003,177.0174 358.7663,178.4584 C359.1313,179.0654 358.5353,180.1894 357.3963,181.4344 C358.4313,180.9374 359.5903,180.8624 360.5693,182.1334 C361.3593,183.1584 358.6873,186.5904 355.5733,188.8324 C355.3063,190.7014 353.7023,193.0594 349.6933,196.2494 C349.6933,196.2494 345.3273,194.7104 340.2403,193.5474 C338.3043,193.1524 332.8203,192.1144 328.4523,192.0404 C328.4523,192.0404 326.4143,182.8984 332.5543,177.7754 C336.4603,174.5164 341.7813,172.5054 344.8763,172.2244 Z M258.0129,172.8556 L258.0129,181.4806 C249.1229,183.8986 243.8939,181.9596 243.8939,181.9596 L243.8939,181.9596 L243.8939,172.8556 L258.0129,172.8556 Z" id="Skin" fill="#f2e4c6"/><path d="M181.8138,237.462 C181.7868,237.462 181.7598,237.46 181.7318,237.455 C181.4598,237.411 181.2748,237.153 181.3198,236.881 C184.0398,220.354 183.4878,211.139 183.4818,211.047 C183.4638,210.772 183.6728,210.534 183.9488,210.515768 C184.2198,210.508 184.4618,210.708 184.4798,210.983 C184.4858,211.075 185.0478,220.389 182.3068,237.043 C182.2668,237.288 182.0548,237.462 181.8138,237.462" id="Fill-7" fill="#000"/><path d="M210.3597,265.6837 C210.0837,265.6837 208.79509,265.927102 208.79509,265.651102 C208.79509,264.369102 209.9257,233.6627 215.7197,223.7367 C215.8597,223.4987 216.1657,223.4177 216.4027,223.5567 C216.6417,223.6957 216.7217,224.0017 216.5827,224.2407 C210.9257,233.9337 209.79509,265.339102 209.79509,265.651102 C209.79509,265.927102 209.57109,266.151102 209.29509,266.151102" id="Fill-9" fill="#000"/><path d="M177.993,268.7394 C177.717,268.7394 177.493,268.5154 177.493,268.2394 C177.493,267.9634 177.717,267.7394 177.993,267.7394 C196.29,267.7394 210.889,242.0094 211.034,241.7484 C211.169,241.5084 211.472,241.4214 211.715,241.5564 C211.955,241.6914 212.042,241.9954 211.907,242.2374 C211.87,242.3024 208.14,248.9254 202.151,255.4544 C194.179,264.1454 185.825,268.7394 177.993,268.7394" id="Fill-11" fill="#000"/><path d="M316.5794,264.7154 C315.5044,264.7154 314.4234,264.4934 313.4054,264.0474 C296.5844,256.6854 290.5344,232.5144 288.7144,222.4644 C288.6654,222.1924 288.8454,221.9324 289.1174,221.8824 C289.3864,221.8324 289.6494,222.0144 289.6984,222.2864 C291.4904,232.1784 297.4254,255.9614 313.8064,263.1314 C315.6514,263.9394 317.7274,263.9084 319.5014,263.0474 C319.7504,262.9274 320.0494,263.0294 320.1694,263.2784 C320.2904,263.5274 320.1864,263.8254 319.9384,263.9464 C318.8824,264.4584 317.7344,264.7154 316.5794,264.7154" id="Fill-13" fill="#000"/><path d="M314.0096,215.5328 C313.8116,215.5328 313.6306,215.4158 313.5506,215.2318 C304.9516,195.3728 291.4206,187.0508 281.5826,183.5658 C270.9086,179.7848 262.1466,180.7158 262.0596,180.7248 C261.7806,180.7558 261.5376,180.5588 261.5066,180.2848 C261.4756,180.0108 261.6726,179.7628 261.9466,179.7318 C262.2996,179.6908 296.8926,176.2198 313.8746,213.4978 C314.9746,209.2378 318.5236,196.7908 323.3016,193.0368 C323.5196,192.8648 323.8336,192.9048 324.0036,193.1208 C324.1746,193.3388 324.1366,193.6528 323.9196,193.8238 C318.5216,198.0648 314.5366,214.9758 314.4966,215.1458 C314.4476,215.3558 314.2696,215.5118 314.0546,215.5308 C314.0396,215.5328 314.0246,215.5328 314.0096,215.5328" id="Fill-15" fill="#000"/><path d="M183.994,215.5328 C183.982,215.5328 183.971,215.5328 183.959,215.5318 C183.683,215.5128 183.476,215.2738 183.494,214.9988 C184.273,203.7178 177.652,194.2138 177.585,194.1188 C177.426,193.8938 177.479,193.5818 177.704,193.4218 C177.93,193.2618 178.241,193.3158 178.401,193.5408 C178.47,193.6388 185.296,203.4228 184.493,215.0668 C184.474,215.3308 184.254,215.5328 183.994,215.5328" id="Fill-17" fill="#000"/><path d="M164.5496,258.6949 C164.3556,258.6949 164.1706,258.5809 164.0896,258.3899 C163.9816,258.1359 164.1006,257.8419 164.3546,257.7349 C164.7686,257.5599 174.5926,253.4809 183.1346,257.4559 C183.3856,257.5719 183.4936,257.8689 183.3776,258.1199 C183.2606,258.3699 182.9646,258.4789 182.7136,258.3619 C174.5686,254.5739 164.8426,258.6139 164.7446,258.6549 C164.6806,258.6819 164.6146,258.6949 164.5496,258.6949" id="Fill-21" fill="#000"/><path d="M311.8558,241.0177 C311.5968,241.0177 311.3778,240.8177 311.3578,240.5557 C309.6178,217.6077 319.9368,197.3067 320.0408,197.1037 C320.1668,196.8587 320.4688,196.7627 320.7138,196.8887 C320.9598,197.0157 321.0558,197.3167 320.9298,197.5617 C320.8268,197.7627 310.6368,217.8227 312.3548,240.4797 C312.3758,240.7547 312.1688,240.9957 311.8938,241.0167 C311.8808,241.0177 311.8688,241.0177 311.8558,241.0177" id="Fill-23" fill="#000"/><path d="M341.763,192.5401 C341.65,192.5401 341.536,192.5021 341.442,192.4231 C341.231,192.2461 341.203,191.9311 341.38,191.7191 C344.496,188.0011 343.426,186.0261 342.39,184.1161 C341.886,183.1861 341.409,182.3071 341.409,181.2771 C341.409,179.4531 342.862,178.0381 344.265,176.6691 C345.328,175.6341 346.427,174.5641 346.846,173.3651 C346.958,173.0461 346.849,172.9711 346.77,172.9161 C345.402,171.9671 338.105,173.7961 332.874,178.1591 C332.662,178.3361 332.347,178.3081 332.17,178.0961 C331.993,177.8841 332.022,177.5681 332.234,177.3921 C337.354,173.1191 345.338,170.7071 347.34,172.0941 C347.856,172.4531 348.021,173.0361 347.79,173.6951 C347.293,175.1161 346.109,176.2701 344.964,177.3861 C343.65,178.6651 342.409,179.8741 342.409,181.2771 C342.409,182.0531 342.808,182.7881 343.269,183.6401 C344.352,185.6371 345.7,188.1221 342.147,192.3611 C342.048,192.4791 341.906,192.5401 341.763,192.5401" id="Fill-25" fill="#000"/><path d="M344.7259,184.4781 C344.2749,184.4781 343.8409,184.4291 343.4279,184.3231 C342.5379,184.0951 342.2619,183.5721 342.1879,183.1741 C341.7019,180.5611 349.5679,174.7221 349.6479,174.6651 C349.8729,174.5051 350.1849,174.5581 350.3449,174.7821 C350.5049,175.0071 350.4529,175.3191 350.2279,175.4791 C348.1049,177.0191 342.8899,181.5121 343.1719,182.9931 C343.1839,183.0591 343.2179,183.2371 343.6759,183.3541 C347.0729,184.2261 352.6659,180.3241 354.8729,177.3621 C355.6529,176.3151 355.8459,175.5871 355.6909,175.3301 C355.5489,175.0931 355.6259,174.7861 355.8629,174.6441 C356.1009,174.5011 356.4069,174.5781 356.5489,174.8151 C356.9839,175.5391 356.6899,176.5971 355.6749,177.9591 C353.4549,180.9381 348.5349,184.4781 344.7259,184.4781" id="Fill-27" fill="#000"/><path d="M347.054,187.3302 C345.772,187.3302 345.31,186.7632 345.147,186.4172 C344.813,185.7062 345.118,184.7602 346.007,183.7522 C346.19,183.5452 346.507,183.5262 346.713,183.7082 C346.92,183.8912 346.94,184.2062 346.757,184.4132 C346.061,185.2042 345.942,185.7582 346.053,185.9922 C346.16,186.2212 346.573,186.3522 347.161,186.3282 C350.679,186.2232 356.458,181.8322 357.817,179.3442 C358.074,178.8732 358.163,178.4832 358.054,178.3022 C357.911,178.0652 357.988,177.7582 358.225,177.6162 C358.462,177.4742 358.769,177.5502 358.911,177.7872 C359.222,178.3052 359.15,178.9902 358.695,179.8232 C357.197,182.5652 351.2,187.2072 347.191,187.3282 C347.144,187.3292 347.098,187.3302 347.054,187.3302" id="Fill-29" fill="#000"/><path d="M351.4954,190.8922 C350.4214,190.8922 350.0164,190.4352 349.8664,190.0492 C349.0414,187.9302 354.7914,182.6222 354.8504,182.5692 C355.0544,182.3852 355.3704,182.4002 355.5564,182.6062 C355.7404,182.8112 355.7244,183.1262 355.5214,183.3112 C353.7184,184.9682 350.4164,188.7202 350.7984,189.6872 C350.8504,189.8192 351.1374,189.8932 351.5204,189.8922 C354.3264,189.8672 358.4044,186.4132 359.6504,183.7072 C360.0024,182.9442 360.0614,182.3372 359.8144,182.0422 C359.6364,181.8312 359.6634,181.5162 359.8754,181.3382 C360.0884,181.1602 360.4034,181.1882 360.5794,181.3992 C360.9434,181.8322 361.2354,182.6572 360.5584,184.1252 C359.3134,186.8292 354.9734,190.8622 351.5294,190.8922 L351.4954,190.8922 Z" id="Fill-31" fill="#000"/><path d="M174.078,126.8829 L183.741,119.0139 L183.425,118.6259 L183.834,119.0579 L183.834,121.2799 L174.075,128.8079 L174.078,126.8829 Z M170.491,143.1259 C172.483,142.3229 173.859,140.9169 174.047,139.6689 L174.057,139.6689 L174.057,139.5859 C174.072,139.4459 174.075,139.3079 174.058,139.1739 L174.073,130.0729 L183.834,122.5429 L183.834,134.4809 C182.763,133.9309 181,133.9589 179.218,134.6769 C176.729,135.6799 175.169,137.6269 175.733,139.0269 C176.297,140.4259 178.771,140.7489 181.26,139.7459 C183.569,138.8159 185.055,137.0769 184.81,135.7119 L184.834,135.7119 L184.834,119.0579 C184.834,118.6459 184.602,118.2799 184.23,118.1029 C183.858,117.9259 183.429,117.9779 183.109,118.2379 L173.447,126.1079 C173.199,126.3099 173.057,126.6089 173.057,126.9269 L173.057,137.8579 C171.985,137.3109 170.227,137.3399 168.448,138.0569 C165.96,139.0589 164.4,141.0069 164.964,142.4059 C165.528,143.8059 168.002,144.1279 170.491,143.1259 L170.491,143.1259 Z M140.215,167.2609 C139.144,166.7099 137.381,166.7379 135.599,167.4559 C133.111,168.4589 131.551,170.4059 132.115,171.8059 C132.679,173.2059 135.153,173.5279 137.641,172.5249 C139.951,171.5949 141.436,169.8559 141.192,168.4909 L141.215,168.4909 L141.215,151.8369 L140.215,151.8369 L140.215,167.2609 Z M190.373,165.4219 L175.167,154.2949 C173.959,153.4099 172.262,153.6729 171.377,154.8819 L162.622,166.8469 C165.567,169.0049 163.876,181.2719 161.6,180.2799 C160.546,179.8209 160.033,177.7159 159.789,175.4909 C159.415,178.3469 158.466,180.9779 157.536,180.5719 C156.538,180.1379 156.192,177.8459 156.085,175.7789 L146.854,188.3939 C145.97,189.6029 146.233,191.2999 147.441,192.1849 L162.647,203.3119 C163.856,204.1959 165.553,203.9329 166.437,202.7239 L190.96,169.2119 C191.845,168.0039 191.582,166.3059 190.373,165.4219 L190.373,165.4219 Z" id="Phone-Case-and-notes" fill="#E2A2B5"/><path d="M156.5423,194.7447 C156.0143,194.7447 155.5853,195.1737 155.5853,195.7017 C155.5853,196.2287 156.0143,196.6587 156.5423,196.6587 C157.0693,196.6587 157.4993,196.2287 157.4993,195.7017 C157.4993,195.1737 157.0693,194.7447 156.5423,194.7447 M156.5423,197.6587 C155.4633,197.6587 154.5853,196.7807 154.5853,195.7017 C154.5853,194.6227 155.4633,193.7447 156.5423,193.7447 C157.6213,193.7447 158.4993,194.6227 158.4993,195.7017 C158.4993,196.7807 157.6213,197.6587 156.5423,197.6587" id="Fill-38" fill="#000"/><path d="M173.5965,156.6495 L163.9915,169.7755 C164.7325,174.0785 163.3355,181.0365 161.5995,180.2795 C160.5495,179.8215 160.0365,177.7295 159.7925,175.5135 L159.7845,175.5245 C159.4075,178.3675 158.4625,180.9765 157.5355,180.5725 C157.2175,180.4335 156.9695,180.0945 156.7705,179.6435 L150.4075,188.3385 L165.4155,199.3215 L188.6005,167.6365 L173.5965,156.6495 Z" id="Fill-40" fill="#F1EFEF"/><path d="M157.7274,181.1134 C157.5954,181.1134 157.4624,181.0864 157.3364,181.0304 C156.9204,180.8494 156.5854,180.4624 156.3124,179.8454 C156.2014,179.5934 156.3154,179.2984 156.5684,179.1864 C156.8234,179.0764 157.1164,179.1894 157.2274,179.4414 C157.3874,179.8014 157.5674,180.0404 157.7354,180.1134 C158.0634,180.0434 158.9004,178.3814 159.2894,175.4584 C159.2954,175.4164 159.7424,172.5664 159.1104,170.4424 C159.0314,170.1774 159.1824,169.8994 159.4464,169.8204 C159.7124,169.7424 159.9894,169.8924 160.0684,170.1564 C160.7674,172.5024 160.2984,175.4784 160.2784,175.6044 C160.1784,176.3544 159.6034,180.2034 158.2414,180.9734 C158.0764,181.0664 157.9014,181.1134 157.7274,181.1134" id="Fill-42" fill="#000"/><path d="M161.8607,180.837 C161.7067,180.837 161.5517,180.804 161.4007,180.738 C160.3157,180.265 159.6277,178.574 159.2957,175.568 C159.2647,175.294 159.4637,175.047 159.7377,175.017 C160.0127,174.991 160.2587,175.185 160.2897,175.459 C160.6767,178.971 161.4747,179.68 161.7997,179.821 C161.8397,179.84 161.8907,179.862 162.0167,179.763 C163.1507,178.873 164.1257,173.504 163.4987,169.86 C163.4517,169.588 163.6337,169.33 163.9057,169.283 C164.1857,169.236 164.4367,169.419 164.4837,169.691 C165.0937,173.233 164.2907,179.25 162.6337,180.549 C162.3907,180.74 162.1267,180.837 161.8607,180.837" id="Fill-44" fill="#000"/><path d="M176.929,194.7447 C176.751,194.7447 176.579,194.6497 176.489,194.4827 C176.458,194.4257 175.747,193.0647 176.794,190.8327 C178.104,188.0407 181.485,185.1557 186.842,182.2557 C191.706,179.6237 191.512,178.6967 191.509,178.6877 C191.341,178.2507 188.874,177.9617 184.756,178.9687 C184.491,179.0327 184.217,178.8697 184.151,178.6017 C184.086,178.3337 184.25,178.0627 184.518,177.9967 C185.248,177.8187 191.666,176.3117 192.442,178.3277 C192.744,179.1117 192.435,180.3667 187.318,183.1357 C180.884,186.6177 178.536,189.4737 177.7,191.2577 C176.878,193.0087 177.363,193.9967 177.368,194.0067 C177.5,194.2497 177.409,194.5527 177.166,194.6847 C177.091,194.7247 177.009,194.7447 176.929,194.7447" id="Fill-46" fill="#000"/></g></g><g id="Hair" transform="translate(104.000000, 398.000000) scale(1 1)"><g id="Hair/Two Topknot" stroke="none" stroke-width="1" fill="none" fill-rule="evenodd"><g id="Head" transform="translate(132.000000, 111.000000)"><path d="M44.1789,24.3663 C44.5879,35.6913 33.3599,45.0883 22.4569,45.0883 C11.5539,45.0883 0.4939,36.9643 0.0189,25.3903 C-0.4461,14.0673 7.7449,1.3583 15.9329,0.2613 C32.6079,-1.9747 43.6789,10.5083 44.1789,24.3663" id="Fill-1" fill="#000"/><path d="M22.4567,44.088 C12.4757,44.088 1.4787,36.559 1.0177,25.35 C0.5797,14.678 8.3147,2.291 16.0657,1.252 C17.3127,1.085 18.5577,1 19.7657,1 C34.4247,1 42.7697,13.058 43.1797,24.402 C43.3447,28.984 41.4627,33.553 37.8807,37.268 C33.7607,41.538 27.9947,44.088 22.4567,44.088" id="Fill-4" fill="#f2e4c6"/></g><path d="M160.7065,111.4357 C162.4035,112.1427 163.9775,113.0797 165.4015,114.1997 C162.2095,111.7067 157.2465,110.1517 152.9305,109.9427 L151.9465,109.8937 C148.0835,109.8937 143.4855,110.9967 140.4155,112.8767 C139.1775,107.7847 134.6005,103.9997 129.1285,103.9997 C122.7065,103.9997 117.5005,109.2057 117.5005,115.6287 C117.5005,122.0507 122.7065,127.2567 129.1285,127.2567 C129.7585,127.2567 130.3725,127.1927 130.9755,127.0967 C130.8275,128.0837 130.7255,129.0867 130.7255,130.1147 C130.7255,135.8767 131.418459,140.268323 134.796928,145.283103 C134.796928,145.283103 140.857441,144.675013 140.4155,140.919981 C137.380033,115.1286 159.9225,117.3457 159.9255,117.3447 C159.9255,117.3447 166.910435,116.774167 171.944435,123.877167 C172.694129,125.309698 173.316185,126.488942 173.73516,127.7566 C179.50716,127.0746 183.1715,121.5837 183.1715,115.6287 C183.1715,109.2057 177.9655,103.9997 171.5435,103.9997 C166.6015,103.9997 162.3905,107.0887 160.7065,111.4357 Z" id="Hair" fill="#372310"/><path d="M141.2563,114.6286 C141.2563,114.3526 141.0323,114.1286 140.7563,114.1286 C140.4803,114.1286 140.2563,114.3526 140.2563,114.6286 C140.2563,120.7646 135.2643,125.7566 129.1283,125.7566 C122.9923,125.7566 118.0003,120.7646 118.0003,114.6286 C118.0003,114.3526 117.7763,114.1286 117.5003,114.1286 C117.2233,114.1286 117.0003,114.3526 117.0003,114.6286 C117.0003,121.3156 122.4413,126.7566 129.1283,126.7566 C135.8163,126.7566 141.2563,121.3156 141.2563,114.6286" id="Fill-5" fill="#000"/><path d="M129.1279,126.2568 C122.9919,126.2568 117.9999,121.2648 117.9999,115.1288 C117.9999,108.9918 122.9919,103.9998 129.1279,103.9998 C134.2719,103.9998 138.7129,107.4928 139.9289,112.4948 L140.0909,113.1618 L140.6759,112.8038 C143.5609,111.0358 147.9849,109.8938 151.9209,109.8928 L152.9059,109.9418 C157.3569,110.1568 162.1399,111.7868 165.0929,114.0928 C165.3109,114.2648 165.6249,114.2238 165.7949,114.0068 C165.9649,113.7888 165.9259,113.4758 165.7089,113.3058 C162.6039,110.8798 157.5979,109.1678 152.9549,108.9438 L151.9459,108.8938 C148.0659,108.8938 143.7489,109.9508 140.7269,111.6178 C139.1909,106.5108 134.5119,102.9998 129.1279,102.9998 C122.4409,102.9998 116.9999,108.4418 116.9999,115.1288 C116.9999,121.8168 122.4409,127.2568 129.1279,127.2568 C129.5269,127.2568 129.9429,127.2328 130.3899,127.1818 C130.2779,128.0668 130.2249,128.8528 130.2249,129.6138 C130.2249,129.8908 130.4489,130.1138 130.7249,130.1138 C131.0019,130.1138 131.2249,129.8908 131.2249,129.6138 C131.2249,128.7188 131.3029,127.7838 131.4699,126.6708 L131.5709,125.9958 L130.8969,126.1028 C130.2439,126.2058 129.6659,126.2568 129.1279,126.2568 M182.6709,115.1288 C182.6709,121.0958 179.37283,125.918689 174.36683,126.729689 C173.94883,125.590689 173.279952,124.438251 172.4269,123.2208 L172.3519,123.0878 C167.2129,115.8368 160.1799,116.3178 159.9669,116.3468 C159.5839,116.3108 150.4479,115.5628 144.5569,121.6138 C140.4969,125.7858 138.9359,132.1328 139.9189,140.4788 C139.9989,141.1638 139.8339,141.7528 139.4129,142.2778 C138.0889,143.9278 134.7789,144.2818 134.7459,144.2858 C134.4719,144.3138 134.2719,144.5588 134.2989,144.8328 C134.3249,145.0908 134.5429,145.2828 134.7959,145.2828 C134.8129,145.2828 134.8299,145.2818 134.8459,145.2798 C134.9989,145.2658 138.6029,144.8828 140.1909,142.9048 C140.7819,142.1708 141.0239,141.3148 140.9119,140.3608 C139.9659,132.3298 141.4339,126.2568 145.2739,122.3118 C150.8349,116.5978 159.5089,117.3108 159.9659,117.3428 C160.0319,117.3418 166.7229,116.8738 171.5409,123.6848 C172.4269,124.998494 173.159947,126.187363 173.558947,127.394363 L173.721379,127.828676 L174.08883,127.777689 C179.81183,127.100689 183.6709,121.7678 183.6709,115.1288 C183.6709,114.8528 183.4469,114.6288 183.1709,114.6288 C182.8949,114.6288 182.6709,114.8528 182.6709,115.1288 Z" id="Fill-1" fill="#000"/></g></g><g id="Expression" transform="translate(201.000000, 501.000000) scale(1 1)"><g id="Expression/Relax" stroke="none" stroke-width="1" fill="none" fill-rule="evenodd"><path d="M49.0105,26.3156 C49.1135,26.3156 49.2155,26.2846 49.3045,26.2206 C51.3455,24.7386 53.3825,25.0236 53.4035,25.0266 C53.6715,25.0706 53.9305,24.8826 53.9725,24.6086 C54.0145,24.3366 53.8295,24.0826 53.5575,24.0396 C53.4575,24.0226 51.1065,23.6746 48.7165,25.4106 C48.4925,25.5736 48.4445,25.8856 48.6065,26.1096 C48.7035,26.2446 48.8565,26.3156 49.0105,26.3156 M72.5845,28.7776 C72.4075,28.5666 72.0935,28.5366 71.8805,28.7156 C71.7205,28.8486 67.9305,31.9406 64.7345,28.7456 C64.5385,28.5496 64.2225,28.5496 64.0275,28.7456 C63.8315,28.9406 63.8315,29.2566 64.0275,29.4526 C65.3225,30.7486 66.7045,31.1796 67.9685,31.1796 C70.4585,31.1796 72.4925,29.5076 72.5235,29.4816 C72.7355,29.3046 72.7625,28.9896 72.5845,28.7776 M56.6395,28.7456 C56.4445,28.5496 56.1275,28.5496 55.9325,28.7456 C52.7375,31.9416 48.9455,28.8486 48.7855,28.7156 C48.5735,28.5376 48.2585,28.5676 48.0815,28.7776 C47.9045,28.9896 47.9315,29.3046 48.1435,29.4816 C48.1735,29.5076 50.2075,31.1796 52.6985,31.1796 C53.9615,31.1796 55.3435,30.7486 56.6395,29.4526 C56.8345,29.2566 56.8345,28.9406 56.6395,28.7456 M67.2635,25.0266 C67.2845,25.0236 69.3215,24.7386 71.3625,26.2206 C71.4505,26.2846 71.5535,26.3156 71.6565,26.3156 C71.8105,26.3156 71.9625,26.2446 72.0605,26.1096 C72.2225,25.8856 72.1735,25.5736 71.9495,25.4106 C69.5585,23.6746 67.2075,24.0226 67.1095,24.0396 C66.8365,24.0826 66.6525,24.3366 66.6945,24.6086 C66.7365,24.8826 66.9995,25.0716 67.2635,25.0266 M66.2575,42.7706 C60.6925,48.3346 54.6455,42.9836 54.3915,42.7536 C54.1885,42.5696 53.8705,42.5836 53.6855,42.7886 C53.4995,42.9926 53.5155,43.3086 53.7195,43.4946 C53.7655,43.5366 56.8405,46.2706 60.7315,46.2706 C62.6975,46.2706 64.8695,45.5726 66.9645,43.4776 C67.1595,43.2826 67.1595,42.9656 66.9645,42.7706 C66.7695,42.5756 66.4525,42.5756 66.2575,42.7706 M59.7885,31.1176 C60.9415,32.6566 62.8445,35.6946 62.1495,37.1586 C61.8605,37.7676 61.0665,38.0766 59.7885,38.0766 C58.5115,38.0766 57.7175,37.7676 57.4285,37.1586 C56.7335,35.6946 58.6365,32.6566 59.7885,31.1176 M56.5255,37.5866 C56.9935,38.5756 58.0915,39.0766 59.7885,39.0766 C61.4865,39.0766 62.5835,38.5756 63.0525,37.5866 C64.2415,35.0786 60.5955,30.5016 60.1755,29.9876 C59.9865,29.7546 59.5915,29.7546 59.4025,29.9876 C58.9825,30.5016 55.3355,35.0786 56.5255,37.5866" id="Fill-4" fill="#000"/><path d="M50.4996066,33 C52.4327301,33 54,33.8954741 54,35 C54,36.1045259 52.4327301,37 50.4996066,37 C48.5664831,37 47,36.1045259 47,35 C47,33.8954741 48.5664831,33 50.4996066,33 Z M68.5,33 C70.4329063,33 72,33.8954741 72,35 C72,36.1045259 70.4329063,37 68.5,37 C66.5670937,37 65,36.1045259 65,35 C65,33.8954741 66.5670937,33 68.5,33 Z" id="Cheeks" fill="#E2A2B5"/></g></g><g id="Facial Hair" transform="translate(200.000000, 500.000000) scale(1 1)" fill="#000"><g id="Facial Hair/None" stroke="none" stroke-width="1" fill="none" fill-rule="evenodd" fill-opacity="0"/></g><g id="Accesories" transform="translate(104.500000, 399.000000) scale(1 1)"><g id="Accesories/Simple Glases" stroke="none" stroke-width="1" fill="none" fill-rule="evenodd"><path d="M153.6922,129 C154.5482,129 155.3622,129.369 155.9252,130.013 C156.4882,130.657 156.7462,131.513 156.6332,132.361 L156.547997,132.998134 C156.879673,132.976172 157.215343,132.9622 157.558,132.9622 C158.066,132.9622 158.558,132.9922 159.04,133.0402 L159.038766,133.04 L158.9677,132.231 C158.8947,131.403 159.1737,130.577 159.7347,129.964 C160.2957,129.352 161.0927,129 161.9237,129 L169.6487,129 C170.5047,129 171.3187,129.369 171.8817,130.013 C172.4447,130.657 172.7027,131.513 172.5897,132.361 L171.8617,137.792 C171.6827,139.129 170.6237,140.178 169.2837,140.342 L166.1967,140.721 C166.0767,140.736 165.9567,140.744 165.8357,140.744 C165.7237,140.744 165.6117,140.737 165.5017,140.725 L162.0737,140.337 C160.6737,140.179 159.5777,139.057 159.4517,137.653 L159.130009,134.055083 C158.620319,133.995157 158.094652,133.9622 157.558,133.9622 C157.168,133.9622 156.787,133.9842 156.411,134.0162 L156.411,134.0162 L155.9052,137.792 C155.7262,139.129 154.6672,140.178 153.3272,140.342 L150.2402,140.721 C150.1202,140.736 150.0002,140.744 149.8792,140.744 C149.7672,140.744 149.6552,140.737 149.5452,140.725 L146.1172,140.337 C144.7172,140.179 143.6212,139.057 143.4952,137.653 L143.0112,132.231 C142.9382,131.403 143.2172,130.577 143.7782,129.964 C144.3392,129.352 145.1362,129 145.9672,129 L153.6922,129 Z M153.6922,130 L145.9672,130 C145.4082,130 144.8932,130.227 144.5162,130.639 C144.1382,131.052 143.9582,131.585 144.0082,132.142 L144.4912,137.564 C144.5742,138.495 145.3012,139.239 146.2302,139.344 L148.2162,139.568 L151.5602,139.552 L151.5602,139.552 L153.2052,139.35 C154.0932,139.241 154.7962,138.546 154.9142,137.659 L155.6412,132.228 C155.7172,131.666 155.5462,131.099 155.1722,130.671 C154.7992,130.245 154.2592,130 153.6922,130 Z M169.6487,130 L161.9237,130 C161.3647,130 160.8497,130.227 160.4727,130.639 C160.0947,131.052 159.9147,131.585 159.9647,132.142 L160.4477,137.564 C160.5307,138.495 161.2577,139.239 162.1867,139.344 L164.1747,139.568 L167.5147,139.552 L167.5147,139.552 L169.1617,139.35 C170.0497,139.241 170.7527,138.546 170.8707,137.659 L171.5977,132.228 C171.6737,131.666 171.5027,131.099 171.1287,130.671 C170.7557,130.245 170.2157,130 169.6487,130 Z" id="Combined-Shape" fill="#000"/></g></g></g></svg>